{"title":"Marry Queen and Max - On Fire - 3D SBS 1080p - DEX","uid":10934246,"size":1384248280,"categoryP":"porn","categoryS":"hd___movies","magnet":"?xt=urn:btih:93bdafc6f8a53e9afc436c76364a113fe3e44821&amp;dn=Marry+Queen+and+Max+-+On+Fire+-+3D+SBS+1080p+-+DEX&amp;tr=udp%3A%2F%2Ftracker.openbittorrent.com%3A80&amp;tr=udp%3A%2F%2Fopen.demonii.com%3A1337&amp;tr=udp%3A%2F%2Ftracker.coppersurfer.tk%3A6969&amp;tr=udp%3A%2F%2Fexodus.desync.com%3A6969","seeders":7,"leechers":3,"uploader":"Dexnet24","files":3,"time":1409422965,"description":"Screenshot:\n &lt;a href=&quot; http://bayimg.com/AAAMLAAGb&quot; rel=&quot;nofollow&quot; target=&quot;_NEW&quot;&gt; http://bayimg.com/AAAMLAAGb&lt;/a&gt;\n\nGeneral\nComplete name: Marry Queen and Max - On Fire - 3D SBS - DEX.mp4\nFormat: MPEG-4\nFormat profile: Base Media / Version 2\nCodec ID: mp42\nFile size: 1.29 GiB\nDuration: 30mn 6s\nOverall bit rate mode: Variable\nOverall bit rate: 6 128 Kbps\n\nVideo\nID: 2\nFormat: AVC\nFormat/Info: Advanced Video Codec\nFormat profile: &lt;a class=&quot;__cf_email__&quot; href=&quot;/cdn-cgi/l/email-protection&quot; data-cfemail=&quot;b8f0d1dfd0f8f48c9688&quot;&gt;[email&amp;#160;protected]&lt;/a&gt;&lt;script cf-hash='f9e31' type=&quot;text/javascript&quot;&gt;\n/* &lt;![CDATA[ */!function(){try{var t=&quot;currentScript&quot;in document?document.currentScript:function(){for(var t=document.getElementsByTagName(&quot;script&quot;),e=t.length;e--;)if(t[e].getAttribute(&quot;cf-hash&quot;))return t[e]}();if(t&amp;&amp;t.previousSibling){var e,r,n,i,c=t.previousSibling,a=c.getAttribute(&quot;data-cfemail&quot;);if(a){for(e=&quot;&quot;,r=parseInt(a.substr(0,2),16),n=2;a.length-n;n+=2)i=parseInt(a.substr(n,2),16)^r,e+=String.fromCharCode(i);e=document.createTextNode(e),c.parentNode.replaceChild(e,c)}}}catch(u){}}();/* ]]&gt; */&lt;/script&gt;\nFormat settings, CABAC: Yes\nFormat settings, ReFrames: 3 frames\nCodec ID: avc1\nCodec ID/Info: Advanced Video Coding\nDuration: 30mn 6s\nBit rate mode: Variable\nBit rate: 6 000 Kbps\nMaximum bit rate: 8 000 Kbps\nWidth: 1 920 pixels\nHeight: 1 080 pixels\nDisplay aspect ratio: 16:9\nFrame rate mode: Constant\nFrame rate: 29.970 fps\nStandard: NTSC\nColor space: YUV\nChroma subsampling: 4:2:0\nBit depth: 8 bits\nScan type: Progressive\nBits/(Pixel*Frame): 0.097\nStream size: 1.26 GiB (98%)\nWriting library: x264 core 114\nEncoding settings: cabac=1 / ref=3 / deblock=1:0:0 / analyse=0x3:0x113 / me=hex / subme=7 / psy=1 / psy_rd=1.00:0.00 / mixed_ref=1 / me_range=16 / chroma_me=1 / trellis=1 / 8x8dct=1 / cqm=2 / deadzone=21,11 / fast_pskip=1 / chroma_qp_offset=-4 / threads=3 / sliced_threads=0 / slices=1 / nr=0 / decimate=1 / interlaced=0 / constrained_intra=0 / bframes=3 / b_pyramid=0 / b_adapt=1 / b_bias=0 / direct=1 / weightb=1 / open_gop=0 / weightp=2 / keyint=250 / keyint_min=25 / scenecut=40 / intra_refresh=0 / rc_lookahead=40 / rc=2pass / mbtree=1 / bitrate=6000 / ratetol=1.0 / qcomp=0.60 / qpmin=5 / qpmax=69 / qpstep=4 / cplxblur=20.0 / qblur=0.5 / vbv_maxrate=8000 / vbv_bufsize=7995 / nal_hrd=vbr / ip_ratio=1.40 / aq=1:1.00\nColor primaries: BT.709\nTransfer characteristics: BT.709\nMatrix coefficients: BT.709\n\nAudio\nID: 1\nFormat: AAC\nFormat/Info: Advanced Audio Codec\nFormat profile: LC\nCodec ID: 40\nDuration: 30mn 6s\nBit rate mode: Variable\nBit rate: 128 Kbps\nMaximum bit rate: 576 Kbps\nChannel(s): 2 channels\nChannel positions: Front: L R\nSampling rate: 48.0 KHz\nCompression mode: Lossy\nStream size: 27.6 MiB (2%)","torrent":{"xt":"urn:btih:93bdafc6f8a53e9afc436c76364a113fe3e44821","amp;dn":"Marry+Queen+and+Max+-+On+Fire+-+3D+SBS+1080p+-+DEX","amp;tr":["udp%3A%2F%2Ftracker.openbittorrent.com%3A80","udp%3A%2F%2Fopen.demonii.com%3A1337","udp%3A%2F%2Ftracker.coppersurfer.tk%3A6969","udp%3A%2F%2Fexodus.desync.com%3A6969"],"infoHash":"93bdafc6f8a53e9afc436c76364a113fe3e44821","infoHashBuffer":{"type":"Buffer","data":[147,189,175,198,248,165,62,154,252,67,108,118,54,74,17,63,227,228,72,33]},"announce":[],"urlList":[]}}